<?xml version="1.0" standalone="no"?>
<!DOCTYPE svg PUBLIC "-//W3C//DTD SVG 20010904//EN"
 "http://www.w3.org/TR/2001/REC-SVG-20010904/DTD/svg10.dtd">
<svg version="1.0" xmlns="http://www.w3.org/2000/svg"
 width="235.000000pt" height="302.000000pt" viewBox="0 0 235.000000 302.000000"
 preserveAspectRatio="xMidYMid meet">
<metadata>
Created by potrace 1.16, written by Peter Selinger 2001-2019
</metadata>
<g transform="translate(0.000000,302.000000) scale(0.100000,-0.100000)"
fill="#000000" stroke="none">
<path d="M1007 2867 c-10 -16 -29 -26 -55 -31 -22 -3 -52 -13 -68 -21 -16 -8
-40 -15 -54 -15 -34 0 -119 -23 -155 -43 -16 -8 -49 -35 -72 -59 -46 -47 -78
-126 -88 -221 -4 -29 -10 -72 -16 -97 -18 -90 -27 -230 -16 -271 11 -46 10
-49 -33 -54 l-33 -4 7 55 c3 31 15 76 26 99 27 59 26 93 -2 104 -13 5 -84 14
-158 20 -188 16 -230 22 -230 32 0 5 12 9 28 9 33 0 95 36 86 51 -4 7 -15 3
-29 -11 -16 -15 -33 -21 -57 -18 l-33 3 -3 -70 c-2 -38 2 -99 9 -135 6 -36 13
-92 15 -125 2 -33 8 -80 14 -105 23 -112 31 -193 18 -201 -7 -4 -18 -3 -25 2
-9 8 -9 4 0 -21 9 -25 9 -33 -2 -39 -11 -7 -11 -10 0 -15 8 -3 2 -4 -14 -1
-29 6 -35 -3 -14 -24 9 -11 9 -14 0 -18 -10 -3 -10 -9 -1 -23 16 -25 2 -38
-22 -22 -31 19 -38 14 -8 -6 19 -12 24 -22 18 -32 -5 -9 -3 -21 6 -34 20 -29
17 -39 -7 -26 -43 24 -40 2 4 -26 25 -16 46 -35 47 -42 0 -7 4 -10 10 -7 12 7
2 -22 -17 -50 -7 -11 -13 -24 -13 -30 0 -5 12 8 27 30 14 22 31 43 37 48 10 7
183 2 231 -7 11 -2 28 1 39 6 12 7 16 7 12 0 -8 -14 18 -22 67 -22 31 0 38 3
27 10 -9 6 -10 10 -3 10 21 0 43 -12 37 -21 -10 -17 114 -9 165 10 l49 20 7
-37 c4 -20 22 -70 41 -111 l35 -74 -22 -24 c-13 -12 -29 -23 -36 -23 -10 0
-13 -9 -11 -27 4 -31 20 -40 40 -20 21 21 58 39 58 28 0 -5 7 -17 16 -26 19
-18 11 -50 -11 -41 -16 6 -20 -11 -7 -31 5 -8 15 -1 30 22 22 31 26 33 53 23
29 -10 30 -13 25 -52 -3 -22 -2 -36 2 -30 13 19 40 23 52 9 7 -8 16 -12 21 -9
5 3 4 -7 -1 -21 -6 -15 -10 -37 -10 -50 0 -25 0 -25 35 -8 49 23 65 6 34 -36
-12 -16 -27 -27 -32 -24 -6 3 -7 1 -3 -5 4 -7 1 -12 -8 -12 -9 0 -16 -4 -16
-10 0 -5 -9 -10 -21 -10 -13 0 -18 -4 -13 -12 4 -7 3 -8 -4 -4 -8 5 -9 13 -3
24 4 9 11 29 15 44 5 23 4 25 -17 20 -12 -3 -24 -9 -27 -13 -3 -4 -16 1 -30
11 -25 19 -25 19 -7 48 26 46 23 64 -10 51 -20 -7 -30 -6 -41 5 -13 13 -17 12
-36 -5 -16 -16 -18 -23 -9 -37 6 -9 18 -16 27 -14 9 2 16 -2 16 -8 0 -5 6 -10
14 -10 8 0 16 -5 18 -12 4 -11 -30 -88 -39 -88 -14 0 -53 54 -53 73 -1 20 -2
20 -16 -5 -16 -31 -24 -34 -42 -16 -9 9 -12 8 -12 -4 0 -9 4 -19 10 -23 5 -3
7 -12 3 -20 -3 -8 -1 -15 5 -15 5 0 12 7 16 15 3 8 0 15 -6 15 -6 0 -9 3 -5 6
13 13 65 -8 70 -28 10 -36 -3 -78 -24 -78 -11 0 -19 7 -19 16 0 25 -33 12 -40
-16 -4 -16 -13 -25 -25 -25 -11 0 -26 -7 -34 -15 -7 -8 -6 -3 3 12 20 34 20
42 0 34 -13 -5 -12 0 4 29 23 38 39 105 26 105 -13 0 -31 -45 -48 -119 -8 -35
-24 -73 -35 -85 -10 -11 -22 -38 -26 -58 -4 -21 -11 -38 -15 -38 -4 0 -10 -13
-13 -30 -4 -16 -13 -30 -21 -30 -7 0 -21 -11 -29 -24 -9 -13 -22 -29 -29 -37
-27 -28 -56 -76 -107 -175 -41 -81 -51 -109 -49 -142 2 -22 6 -38 10 -36 4 2
9 0 13 -6 6 -10 -6 -14 -35 -11 -13 2 -13 1 0 -8 24 -17 110 -14 110 4 0 8 6
12 13 9 9 -3 17 9 24 38 6 24 14 52 18 63 8 20 8 20 -8 0 -8 -11 -18 -17 -22
-14 -3 4 1 13 9 22 8 8 12 18 8 23 -4 5 1 2 10 -5 9 -7 23 -9 29 -5 8 4 9 3 5
-4 -11 -19 9 -14 27 6 24 26 21 42 -7 42 -32 0 -38 11 -17 31 23 23 62 8 54
-20 -8 -30 9 -26 53 14 22 19 50 44 64 55 21 18 22 21 5 15 -15 -5 -17 -3 -8
6 6 6 9 17 6 25 -2 7 8 19 26 29 19 9 31 11 31 5 0 -6 5 -8 12 -4 7 4 8 3 4
-5 -4 -6 -12 -8 -18 -5 -7 4 -8 2 -4 -4 4 -7 3 -12 -2 -12 -6 0 -13 -7 -16
-16 -4 -12 1 -10 23 6 17 11 33 29 36 40 4 11 10 20 15 20 5 0 14 10 21 21 6
13 7 19 1 15 -6 -3 -12 -1 -14 5 -3 9 -9 9 -25 1 -29 -16 -45 5 -37 47 9 44
39 60 76 40 15 -8 16 -13 5 -29 -6 -11 -18 -18 -24 -15 -7 2 -18 -6 -23 -18
-10 -19 -9 -20 2 -6 14 17 43 14 32 -3 -16 -25 35 2 68 36 34 35 43 67 16 50
-8 -5 -9 -1 -5 10 4 11 3 15 -4 11 -6 -4 -8 -13 -5 -21 6 -15 -9 -28 -23 -20
-5 3 -3 23 4 43 10 28 19 38 34 37 11 0 18 3 15 8 -3 4 2 8 11 8 14 0 14 -3 0
-30 -17 -34 -18 -40 -6 -40 5 0 13 9 16 20 4 11 10 18 14 16 4 -3 15 11 25 30
9 20 12 33 6 29 -13 -8 -13 11 1 36 6 12 17 18 25 15 8 -3 13 -2 11 2 -3 4 -1
25 4 47 l8 40 -2 -37 c-3 -43 3 -41 32 8 17 28 18 35 6 31 -9 -4 -15 -1 -15 8
0 19 63 50 84 42 20 -8 11 -69 -16 -115 -11 -17 -21 -50 -23 -73 -1 -22 -5
-43 -9 -46 -11 -11 -6 -24 7 -17 6 4 4 -2 -6 -13 -9 -11 -15 -27 -11 -36 3 -8
1 -24 -5 -35 -6 -11 -7 -22 -4 -26 12 -12 8 -66 -5 -66 -10 0 -13 -16 -11 -63
2 -66 -5 -92 -23 -81 -6 4 -6 -2 1 -15 7 -11 9 -21 6 -21 -6 0 4 -13 33 -45
12 -13 10 -15 -9 -12 -12 2 -24 12 -26 23 -7 38 -9 44 -18 51 -4 4 -5 -3 -2
-17 4 -14 7 -35 7 -48 0 -12 3 -21 8 -20 4 1 20 -2 36 -7 18 -5 36 -4 48 4 14
9 18 8 18 -4 0 -8 5 -15 11 -15 8 0 10 12 6 36 -4 26 0 49 13 76 16 34 17 39
3 34 -13 -5 -14 -4 -3 9 7 9 15 13 18 11 8 -9 45 45 48 69 1 13 14 40 29 59
15 19 24 40 21 45 -4 5 -2 12 4 16 5 3 10 13 10 21 0 9 -5 12 -12 8 -8 -5 -9
-2 -5 9 7 18 -8 24 -18 7 -6 -10 -35 -3 -35 9 1 16 41 52 60 54 11 1 20 5 20
10 0 5 7 2 15 -7 20 -20 19 -25 -4 -19 -24 6 -34 -29 -15 -54 13 -17 13 -17
15 2 1 11 1 26 0 34 -2 7 2 10 8 6 6 -3 14 2 17 12 12 38 29 66 61 100 18 19
33 43 33 52 0 10 7 24 15 31 8 7 15 18 15 24 0 6 8 19 18 27 31 28 64 71 58
77 -3 3 -1 11 4 18 6 6 12 21 15 32 3 19 2 19 -23 7 -37 -20 -53 -6 -58 50 -2
26 -6 50 -9 53 -3 3 -18 -4 -34 -16 -27 -19 -29 -20 -33 -4 -6 21 67 79 77 62
3 -5 4 -14 0 -19 -3 -5 -1 -12 5 -16 6 -3 13 1 16 9 14 37 71 5 60 -32 -4 -11
-3 -30 2 -43 l9 -23 12 23 c7 12 15 20 18 17 8 -8 33 42 33 66 0 11 -5 18 -12
15 -7 -2 -12 -15 -11 -28 1 -13 -1 -18 -3 -11 -3 6 -12 12 -19 12 -16 0 -45
27 -45 41 0 6 5 7 10 4 6 -3 10 -1 10 4 0 6 -7 11 -15 11 -8 0 -15 -4 -15 -10
0 -5 -9 -10 -20 -10 -11 0 -20 4 -20 9 0 11 39 26 58 22 7 -1 11 3 10 9 -4 16
48 54 61 45 8 -4 9 -11 2 -18 -5 -7 -7 -25 -4 -41 l6 -29 13 24 c7 13 13 37
14 53 l0 29 58 -6 c31 -4 92 -10 135 -13 50 -4 77 -11 77 -19 0 -8 -9 -10 -25
-7 -20 3 -25 0 -25 -16 0 -43 10 -52 60 -52 44 0 48 2 43 21 -5 19 -3 21 27
14 25 -5 31 -4 28 6 -3 8 -19 15 -37 17 -22 2 -35 10 -38 22 -6 21 -31 30 -90
30 -23 0 -45 5 -48 10 -4 6 8 10 29 10 19 0 38 5 41 10 5 8 11 8 19 1 6 -6 56
-12 111 -15 63 -4 104 -11 114 -20 9 -7 26 -17 39 -21 13 -4 27 -16 32 -28 7
-16 8 -12 4 18 -4 30 -3 36 5 25 8 -11 11 -11 11 -2 0 7 6 12 13 11 6 -1 27
-1 45 0 l32 1 0 168 c0 151 -2 171 -18 185 -24 22 -32 21 -32 -2 0 -11 -4 -22
-9 -26 -6 -3 -6 7 0 27 10 35 5 44 -26 50 -34 6 -28 36 29 152 55 111 56 115
56 200 l0 86 -41 0 c-23 0 -59 5 -81 12 -35 10 -38 14 -33 38 l6 27 -98 6
c-54 4 -140 7 -190 7 l-93 0 0 28 c0 47 28 281 35 292 4 6 4 34 0 62 -5 34
-10 46 -16 37 -12 -19 -11 -66 1 -74 15 -9 12 -18 -17 -49 -16 -17 -29 -24
-31 -18 -2 7 -11 12 -21 12 -9 0 -22 5 -29 12 -8 8 -15 8 -27 -2 -12 -10 -15
-10 -15 4 0 9 7 16 15 16 9 0 12 6 9 18 -3 9 1 6 9 -7 8 -14 17 -19 21 -13 3
6 2 13 -4 17 -5 3 -10 10 -10 16 0 14 28 11 33 -3 4 -9 6 -8 6 2 1 9 -4 21
-10 27 -6 6 -8 25 -4 45 5 29 10 34 33 33 15 0 33 -4 40 -8 21 -14 13 7 -17
43 -28 34 -29 34 -24 9 4 -21 1 -26 -16 -24 -11 1 -24 4 -27 8 -4 4 -14 7 -22
7 -9 0 -7 -6 8 -18 16 -13 20 -23 15 -33 -5 -7 -10 -22 -10 -33 -1 -10 -11
-26 -23 -35 -18 -14 -58 -129 -48 -139 2 -2 14 11 26 28 26 36 46 31 26 -8 -7
-15 -16 -39 -20 -54 -6 -26 -6 -26 24 -12 29 15 42 44 19 44 -5 0 -8 -4 -4 -9
3 -5 1 -12 -5 -16 -15 -9 -12 12 7 48 11 22 18 27 20 17 12 -43 15 -45 23 -25
7 17 9 14 9 -12 1 -33 -13 -45 -22 -20 -3 6 -6 2 -6 -10 -1 -14 5 -23 14 -23
12 0 13 -4 7 -17 -15 -29 -25 -200 -13 -208 14 -8 4 -25 -14 -25 -7 0 -21 7
-30 16 -8 9 -22 13 -30 10 -9 -3 -15 0 -15 9 0 8 5 15 11 15 5 0 7 5 4 11 -5
7 -15 5 -32 -6 -13 -9 -32 -14 -40 -11 -10 4 -13 2 -10 -8 16 -41 -133 -176
-194 -176 -33 0 -46 15 -58 66 -5 21 -9 34 -10 27 -1 -6 -10 -9 -21 -6 -29 8
-45 -33 -29 -72 16 -39 19 -65 6 -65 -6 0 -7 -3 -3 -7 4 -4 18 6 31 22 13 17
25 26 25 20 6 -47 10 -68 24 -120 18 -70 19 -85 7 -104 -8 -12 -12 -12 -25 -2
-9 8 -16 10 -16 5 0 -5 -5 -2 -11 6 -9 13 -10 13 -8 0 1 -8 -1 -23 -6 -33 -4
-9 -5 -26 -2 -37 3 -10 1 -20 -4 -22 -5 -2 -6 -31 -3 -65 4 -34 11 -60 15 -57
12 7 11 61 -1 84 -7 12 -6 21 3 27 26 21 45 20 75 -3 27 -22 30 -28 21 -48 -8
-16 -8 -29 -1 -42 7 -14 6 -26 -4 -44 -7 -14 -13 -21 -14 -15 0 5 -5 4 -12 -3
-7 -7 -17 -8 -28 -2 -14 8 -16 3 -15 -44 1 -30 5 -58 9 -64 3 -5 -1 -15 -9
-22 -8 -7 -12 -17 -9 -22 4 -5 16 6 28 26 20 33 23 35 42 22 15 -11 19 -25 19
-61 -1 -41 -5 -49 -33 -67 l-32 -20 0 35 c0 20 -4 39 -10 42 -6 4 -9 -19 -9
-60 1 -36 5 -67 9 -70 9 -5 162 98 233 157 27 23 58 60 68 83 10 22 19 32 19
22 0 -31 -28 -73 -77 -117 -58 -51 -221 -160 -240 -160 -7 0 -13 -4 -13 -10 0
-20 27 -9 110 46 107 72 187 139 211 178 13 22 19 26 19 13 0 -31 -81 -107
-203 -188 -65 -43 -123 -79 -128 -79 -7 0 -8 -12 -4 -30 5 -23 3 -30 -9 -30
-10 0 -16 9 -16 24 0 23 -1 23 -94 18 -213 -11 -365 53 -434 185 -15 27 -15
33 -2 33 6 0 10 -7 10 -15 0 -23 90 -109 138 -134 23 -12 70 -28 104 -36 68
-16 240 -19 273 -5 13 6 -17 9 -85 9 -133 2 -229 22 -298 63 -56 34 -112 98
-112 128 0 13 -7 16 -31 12 -24 -4 -30 -1 -27 9 3 8 14 13 24 11 18 -2 18 -2
0 13 -11 8 -17 17 -14 21 9 8 53 -40 68 -75 7 -17 33 -50 58 -71 65 -58 146
-81 306 -87 l129 -6 -7 68 c-4 37 -12 77 -18 89 -7 12 -11 33 -9 47 1 15 -5
33 -13 42 -12 12 -13 17 -3 20 8 4 9 6 0 6 -6 1 -18 -5 -26 -13 -8 -8 -24 -12
-40 -9 -25 5 -27 3 -27 -29 0 -19 5 -39 11 -45 9 -9 5 -18 -15 -36 -26 -25
-35 -57 -15 -57 6 0 9 7 5 15 -3 8 -1 15 4 15 15 0 22 -19 15 -40 -6 -18 -8
-18 -21 -5 -18 18 -49 21 -38 3 4 -7 3 -8 -4 -4 -18 11 -15 49 3 42 8 -3 15
-1 15 5 0 16 -31 23 -41 8 -5 -8 -7 -24 -4 -36 4 -18 1 -23 -13 -23 -30 0 -82
21 -77 31 3 5 0 19 -7 31 -7 13 -11 26 -10 30 1 4 -8 3 -21 -1 -14 -6 -21 -16
-19 -27 2 -18 2 -18 -8 -1 -6 9 -9 21 -6 25 3 5 -4 16 -15 25 -23 20 -23 17
-5 -28 17 -40 16 -41 -23 -21 -32 17 -67 86 -57 113 7 17 9 16 26 -4 16 -20
19 -21 30 -8 8 9 11 31 7 55 -4 32 -1 43 14 54 17 12 18 15 4 26 -8 7 -15 17
-15 23 0 6 7 2 16 -9 13 -16 15 -16 10 -2 -3 10 -1 20 4 23 6 4 10 -11 10 -34
0 -23 5 -41 10 -41 16 0 12 53 -6 79 -13 18 -18 20 -25 10 -6 -11 -11 -10 -23
6 -8 11 -18 16 -22 12 -5 -4 -4 -11 2 -15 6 -4 14 -24 18 -45 6 -33 4 -38 -16
-46 -16 -7 -26 -5 -34 5 -6 8 -16 14 -22 14 -14 0 -23 -28 -12 -35 6 -4 10 2
11 12 0 13 2 14 6 3 3 -8 15 -23 26 -35 16 -16 19 -17 14 -3 -3 10 -2 20 2 23
12 7 19 -25 11 -54 l-6 -24 -18 28 c-17 25 -20 27 -26 11 -3 -9 -10 -17 -14
-16 -5 1 -12 -4 -16 -11 -5 -8 -8 -3 -9 12 -1 52 -9 126 -16 154 -7 28 -6 29
7 11 25 -32 41 -10 35 45 -3 27 -2 49 3 49 4 0 10 -5 12 -12 3 -7 12 -9 22 -5
14 6 17 17 16 55 -2 26 -2 53 -1 60 2 18 31 15 31 -4 0 -8 4 -13 9 -9 9 5 3
35 -13 76 -5 10 4 27 26 48 26 26 34 29 41 16 4 -8 14 -15 22 -15 7 0 15 -5
17 -11 2 -6 5 16 6 48 2 49 -1 63 -18 78 -18 16 -23 17 -30 5 -7 -12 -11 -12
-25 0 -15 12 -19 12 -31 -5 -16 -22 -18 -68 -4 -95 8 -15 6 -23 -11 -39 -13
-12 -18 -25 -14 -33 6 -9 5 -10 -3 -3 -6 6 -12 21 -15 35 -4 24 -4 24 -6 -3 0
-16 3 -37 9 -47 12 -23 4 -47 -19 -53 -12 -3 -21 5 -30 24 -7 16 -17 29 -23
29 -6 0 -6 -6 2 -15 9 -10 9 -15 1 -15 -6 0 -11 -7 -11 -15 0 -18 20 -20 20
-2 1 6 7 -3 15 -20 16 -38 35 -44 29 -10 l-5 22 12 -22 c6 -12 8 -34 5 -49
l-7 -28 -21 32 c-24 39 -27 39 -20 7 5 -29 3 -30 -34 -10 -16 8 -25 15 -19 15
27 0 -40 31 -73 34 -20 1 -35 6 -32 11 3 6 9 9 14 7 19 -6 46 11 46 29 0 28
19 23 26 -7 10 -38 21 -12 19 43 -2 46 -2 47 15 25 l18 -21 2 27 c1 15 2 48 2
75 -1 47 10 62 22 31 4 -9 9 -14 13 -11 3 4 1 12 -4 19 -6 7 -14 33 -18 58 -4
25 -11 50 -16 56 -5 6 -11 42 -15 81 -6 62 -9 70 -25 66 -23 -6 -23 -11 -4
-56 19 -45 19 -57 2 -32 -13 17 -14 17 -20 -4 -5 -21 -47 -31 -47 -10 0 5 -5
7 -11 3 -8 -5 -8 -9 1 -14 9 -5 9 -9 1 -14 -14 -9 -14 -51 -1 -75 14 -27 -21
-65 -53 -57 -52 13 -69 37 -72 106 -1 36 -6 88 -10 115 -5 36 -4 46 4 35 6 -8
8 -24 5 -34 -5 -15 -3 -18 11 -13 9 4 21 7 26 7 5 0 9 14 9 30 0 17 -4 30 -9
30 -5 0 -7 -9 -4 -20 3 -11 1 -20 -5 -20 -14 0 -25 54 -17 80 9 27 25 25 26
-2 1 -17 3 -18 6 -6 2 9 -1 27 -8 39 l-11 22 -20 -24 -20 -24 8 65 c4 36 8
107 10 158 3 110 21 153 81 196 49 34 142 58 183 46 16 -4 31 -6 34 -2 13 13
65 11 76 -3 10 -12 9 -15 -4 -15 -9 0 -16 -5 -16 -11 0 -6 -7 -4 -15 5 -9 8
-22 13 -31 9 -16 -6 -12 -26 12 -75 8 -15 14 -34 14 -43 0 -15 2 -15 15 -1 18
17 20 52 4 62 -8 4 -9 0 -4 -15 3 -12 2 -21 -4 -21 -12 0 -35 69 -26 78 4 4
10 1 12 -5 3 -7 11 -13 19 -13 8 0 14 -4 14 -10 0 -5 8 -10 17 -10 13 0 14 3
5 12 -7 7 -12 17 -12 23 0 5 5 2 11 -8 6 -9 13 -16 17 -13 4 2 8 -9 9 -25 2
-31 -5 -36 -26 -16 -10 10 -12 8 -9 -8 5 -30 52 -28 56 3 2 12 8 20 13 16 5
-3 7 -10 4 -15 -3 -5 1 -6 9 -3 10 4 20 -6 31 -30 10 -20 22 -36 28 -36 5 0 2
9 -8 20 -10 11 -15 20 -10 20 4 0 16 -9 26 -21 19 -22 16 -49 -6 -49 -7 0 -15
-6 -17 -12 -3 -8 -14 -2 -31 15 -22 24 -26 26 -27 10 0 -10 -2 -35 -3 -56 -4
-40 15 -77 39 -77 8 0 14 4 14 10 0 5 13 -4 29 -21 16 -16 32 -26 35 -20 3 5
2 11 -4 13 -7 2 -6 14 2 36 9 24 10 39 1 62 -10 26 -8 31 12 44 21 14 25 14
42 -2 11 -9 13 -13 6 -8 -9 5 -13 4 -13 -5 0 -10 -3 -10 -11 -2 -15 15 -39 5
-32 -14 5 -12 7 -12 15 -1 6 9 7 5 3 -11 -5 -15 -3 -21 3 -17 6 4 15 -2 21
-11 7 -12 10 -13 11 -4 0 11 3 11 17 0 15 -12 16 -12 10 4 -4 12 -3 16 4 11 6
-3 9 -17 6 -30 -2 -14 1 -25 9 -28 10 -4 12 -16 8 -41 -3 -21 -1 -35 5 -35 6
0 11 5 11 10 0 6 6 5 14 -2 8 -7 10 -15 6 -18 -4 -3 -8 -36 -9 -75 -2 -71 -7
-88 -19 -68 -4 6 -8 -22 -10 -63 -1 -48 2 -74 9 -74 6 0 9 6 7 12 -3 7 5 17
16 23 12 6 22 22 24 38 2 16 10 31 18 34 8 3 14 12 14 20 0 8 4 12 8 9 5 -3 5
18 1 46 -5 28 -5 56 -2 61 3 6 1 7 -5 3 -8 -5 -12 4 -12 28 0 20 -5 36 -11 36
-6 0 -9 7 -6 15 7 17 -27 121 -47 144 -7 9 -16 24 -19 34 -10 27 -90 137 -130
178 -19 20 -46 57 -60 82 l-25 47 -15 -23z m674 -769 c1 -4 2 -12 3 -17 0 -5
5 -13 10 -18 5 -5 6 -3 2 5 -4 6 -3 12 3 12 5 0 21 -20 35 -45 22 -41 24 -49
12 -76 l-13 -30 -13 40 -13 40 -19 -39 c-34 -68 -152 -150 -217 -150 -34 0
-71 23 -71 44 0 6 5 5 12 -2 55 -55 268 77 268 167 0 25 -1 24 -23 -10 -23
-38 -56 -68 -121 -113 -42 -28 -112 -36 -134 -14 -19 19 -14 28 10 19 66 -24
241 98 241 167 0 17 6 29 14 29 7 0 14 -4 14 -9z m340 -45 c-6 -21 -14 -28
-32 -28 -21 0 -27 -10 -53 -85 -16 -47 -33 -87 -38 -88 -5 -2 -16 -11 -25 -20
-16 -16 -87 -22 -100 -8 -4 4 1 19 10 35 9 16 19 55 23 87 3 33 12 74 20 92
14 29 19 32 59 32 24 0 56 -5 71 -10 22 -9 31 -8 43 5 23 22 30 18 22 -12z
m-1557 -39 c2 -10 8 -20 15 -22 9 -3 11 2 6 18 -5 16 -4 20 5 15 7 -4 9 -17 6
-31 -5 -17 -2 -24 9 -24 8 0 15 -9 15 -19 0 -11 4 -22 9 -26 6 -3 9 -26 7 -51
-1 -26 1 -66 4 -91 6 -37 4 -46 -12 -54 -19 -10 -24 -34 -8 -44 6 -3 7 1 4 9
-3 9 -2 16 4 16 15 0 25 -51 13 -63 -8 -8 -11 -7 -11 1 0 7 -7 12 -15 12 -13
0 -12 -4 5 -22 11 -12 20 -25 20 -30 0 -4 5 -8 11 -8 6 0 9 6 6 14 -3 8 1 20
9 26 16 14 17 7 8 -38 -3 -17 -14 -32 -24 -35 -22 -6 -50 10 -50 28 0 8 -4 15
-10 15 -5 0 -14 9 -20 21 -9 16 -8 24 3 37 25 29 27 61 6 72 -23 13 -25 48 -4
57 9 3 23 -3 31 -13 15 -19 15 -19 9 0 -3 11 0 23 7 27 8 5 -3 7 -24 6 -34 -3
-38 -1 -38 20 0 16 -6 23 -20 23 -11 0 -20 6 -20 14 0 7 9 25 20 39 20 26 27
67 11 67 -13 0 -20 25 -14 50 6 24 23 14 27 -16z m1218 -222 c8 -9 5 -18 -10
-33 -12 -11 -22 -24 -22 -29 0 -16 19 -11 37 10 10 11 23 20 30 20 7 0 13 6
13 14 0 8 4 18 10 21 5 3 7 0 4 -9 -4 -11 5 -18 35 -26 40 -11 71 -33 71 -51
0 -6 -45 -9 -112 -8 -91 1 -115 5 -126 18 -11 14 -12 13 -2 -6 6 -13 9 -23 8
-24 -2 -1 -18 -2 -36 -4 -26 -2 -32 0 -27 14 2 9 -2 28 -9 43 -13 24 -13 28 3
33 10 3 40 21 67 40 48 35 49 35 52 13 2 -13 9 -29 14 -36z m-187 -122 c13 -7
31 -10 39 -7 18 7 46 -39 39 -63 -3 -8 5 1 17 20 15 23 18 36 10 38 -6 2 1 10
15 18 36 18 35 19 33 -20 -1 -22 -5 -33 -13 -30 -7 3 -15 -5 -19 -18 -9 -36
-7 -48 10 -48 9 0 12 5 8 13 -4 7 -2 7 7 -2 11 -11 11 -14 1 -18 -10 -4 -10
-8 -1 -19 9 -11 9 -14 -1 -14 -10 0 -10 -3 0 -15 11 -13 10 -21 0 -43 l-13
-27 -13 33 c-8 17 -19 32 -24 32 -12 0 -13 -17 -1 -22 4 -1 12 -13 15 -25 6
-18 3 -23 -11 -23 -15 0 -16 -2 -3 -10 13 -8 12 -10 -2 -10 -10 0 -18 2 -18 4
0 2 -3 11 -6 20 -4 11 -1 16 10 16 9 0 16 5 16 10 0 6 -7 10 -15 10 -11 0 -15
12 -15 51 0 30 -4 48 -10 44 -5 -3 -7 -19 -4 -34 3 -16 1 -31 -4 -35 -16 -10
-26 15 -11 25 12 8 11 11 -4 20 -14 8 -16 18 -11 45 7 36 -10 69 -29 57 -6 -4
-3 -12 9 -21 18 -14 18 -14 -1 -7 -11 4 -26 8 -33 9 -25 4 -31 29 -14 60 11
22 17 26 19 15 2 -9 15 -22 28 -29z m18 -132 c2 -7 1 -23 -4 -35 -7 -19 -4
-23 22 -28 22 -5 28 -11 25 -23 -3 -10 0 -28 7 -42 12 -23 11 -27 -14 -47
l-27 -23 -6 32 c-6 30 -7 30 -26 13 -31 -28 -54 -12 -47 32 4 20 2 44 -3 53
-7 13 -3 25 18 48 29 33 48 39 55 20z m-345 -501 c8 -6 12 -6 12 2 0 6 17 11
41 11 39 0 40 0 25 -22 -9 -12 -16 -33 -16 -46 l0 -23 22 21 c12 11 25 20 30
20 16 0 8 -21 -16 -43 -86 -77 -87 -78 -61 -27 14 26 14 29 0 24 -8 -4 -15 -9
-15 -13 0 -9 -28 -11 -49 -5 -10 3 -11 7 -1 19 7 8 16 12 21 9 10 -6 0 25 -14
44 -8 10 -14 9 -28 -4 -11 -10 -19 -12 -19 -6 0 7 -7 12 -15 12 -17 0 -18 2
-9 24 7 18 69 20 92 3z"/>
<path d="M1484 2771 c-2 -2 -4 -16 -4 -31 0 -19 7 -30 25 -38 35 -16 48 -15
41 4 -3 8 -2 12 4 9 11 -7 14 -38 4 -48 -3 -3 -14 -1 -24 5 -39 25 -62 -15
-40 -67 l9 -20 0 20 c2 31 15 45 38 39 25 -7 44 -44 36 -73 -12 -48 27 -99 43
-56 4 9 16 13 34 11 27 -3 28 -2 23 38 -7 51 -20 67 -37 44 -28 -38 -82 12
-65 60 5 13 6 35 3 48 -6 22 -4 24 17 15 13 -4 38 -6 55 -4 29 5 31 3 27 -20
-4 -18 1 -28 16 -36 17 -10 20 -9 15 4 -4 8 -10 15 -15 15 -14 0 -10 26 5 40
12 9 18 8 32 -8 9 -11 23 -18 30 -15 22 8 -54 63 -90 65 -64 4 -178 3 -182 -1z"/>
<path d="M805 2459 c-4 -11 -9 -18 -12 -16 -2 3 -17 2 -33 -3 -23 -7 -29 -5
-33 12 -4 12 -12 18 -24 16 -22 -4 -29 -55 -14 -98 7 -23 6 -32 -7 -47 -9 -10
-24 -18 -32 -18 -9 0 -16 -11 -18 -27 -3 -21 1 -28 14 -28 13 0 14 3 5 14 -7
9 -8 17 -3 20 13 8 22 -17 22 -60 0 -38 -6 -42 -27 -16 -13 16 -14 16 -11 -3
2 -11 13 -25 26 -31 12 -6 19 -14 15 -17 -3 -4 -1 -7 6 -7 8 0 11 6 7 16 -3 8
-2 23 3 32 6 11 4 31 -4 56 -12 33 -11 41 1 53 8 8 14 18 14 23 0 4 9 6 20 3
16 -4 20 0 20 21 0 14 5 26 10 26 6 0 8 -10 4 -24 -4 -17 1 -31 15 -45 12 -12
21 -25 21 -31 0 -5 6 -10 13 -10 45 0 65 102 28 137 -14 13 -17 23 -11 33 5 8
10 21 10 28 0 20 -18 14 -25 -9z"/>
<path d="M1166 2005 c-13 -13 -17 -31 -15 -64 4 -54 -6 -87 -26 -95 -17 -6
-21 -56 -4 -56 6 0 8 9 4 20 -4 11 -2 20 4 20 6 0 11 -19 11 -42 0 -24 -4 -38
-8 -32 -4 6 -17 14 -29 18 -18 6 -20 4 -16 -14 3 -11 1 -20 -5 -20 -16 0 -25
37 -17 68 6 26 7 26 21 8 12 -18 14 -18 14 -3 0 26 -30 34 -46 12 -13 -18 -13
-42 1 -77 9 -24 33 -30 43 -11 8 14 12 14 36 -2 15 -10 29 -15 33 -11 3 3 2 6
-4 6 -6 0 -8 19 -5 49 2 29 0 51 -6 55 -16 10 8 58 25 52 8 -3 17 4 22 17 l8
22 7 -23 c4 -12 13 -22 21 -22 7 0 15 -5 17 -11 2 -6 5 18 6 53 2 49 -1 68
-13 78 -12 10 -19 10 -27 2 -8 -8 -14 -7 -23 4 -10 15 -13 15 -29 -1z"/>
<path d="M341 1371 c-8 -15 -21 -21 -45 -21 -36 0 -46 -13 -121 -155 -44 -83
-138 -251 -157 -282 -11 -19 -18 -45 -16 -64 3 -28 13 -14 93 132 50 90 90
172 89 181 0 9 3 15 7 12 4 -2 27 32 50 76 24 44 49 80 57 80 8 0 11 -7 7 -19
-5 -15 1 -19 37 -24 36 -5 46 -3 61 15 23 27 17 42 -19 48 -18 3 -25 8 -17 13
6 4 62 3 124 -3 61 -6 114 -8 118 -5 13 14 -29 25 -95 25 -39 0 -92 3 -117 6
-39 6 -46 4 -56 -15z"/>
<path d="M2054 1143 c6 -25 227 -709 276 -853 l18 -55 1 68 c1 63 -29 176 -69
262 -5 11 -52 152 -106 313 -69 208 -101 292 -111 292 -11 0 -14 -7 -9 -27z"/>
</g>
</svg>
