<?xml version="1.0" standalone="no"?>
<!DOCTYPE svg PUBLIC "-//W3C//DTD SVG 20010904//EN"
 "http://www.w3.org/TR/2001/REC-SVG-20010904/DTD/svg10.dtd">
<svg version="1.0" xmlns="http://www.w3.org/2000/svg"
 width="236.000000pt" height="314.000000pt" viewBox="0 0 236.000000 314.000000"
 preserveAspectRatio="xMidYMid meet">

<g transform="translate(0.000000,314.000000) scale(0.100000,-0.100000)"
fill="#000000" stroke="none">
<path d="M0 2849 l0 -292 118 7 c117 7 615 36 620 36 1 0 2 17 2 38 0 48 45
180 71 208 11 12 43 34 72 49 29 15 78 45 110 67 32 21 62 36 68 33 16 -10 2
-22 -79 -66 -130 -71 -167 -102 -190 -161 -28 -71 -40 -123 -41 -183 -1 -27
-4 -58 -7 -67 -4 -12 -1 -16 8 -13 12 5 13 -9 6 -76 -4 -45 -6 -85 -3 -89 8
-12 -6 -41 -16 -34 -5 3 -6 10 -3 16 4 6 0 14 -7 19 -8 5 -175 9 -371 9 l-358
0 0 -30 0 -30 353 -2 c193 0 358 -1 365 -1 6 1 12 -5 12 -13 0 -12 -60 -14
-365 -14 l-365 0 0 -35 0 -35 377 0 c283 0 374 -3 366 -11 -12 -12 -10 -36 7
-114 19 -86 21 -125 6 -125 -7 0 -14 6 -13 13 1 44 19 42 -373 39 l-370 -2 0
-30 0 -30 369 0 c206 0 372 -4 375 -9 9 -14 -329 -24 -546 -17 l-198 7 0 -30
0 -31 283 -1 c155 -1 329 -4 387 -8 l105 -6 -175 -9 c-96 -4 -271 -6 -388 -4
l-212 3 0 -27 0 -28 388 0 c213 0 393 -4 400 -9 23 -14 -127 -21 -465 -21
l-323 0 0 -27 0 -28 297 3 c164 1 348 -1 408 -6 l110 -8 -165 -8 c-91 -4 -274
-6 -408 -4 l-242 3 0 -27 0 -28 383 -1 c392 -1 513 -9 363 -22 -43 -4 -229 -7
-413 -7 l-333 0 0 -25 0 -25 348 -1 c388 -1 587 -14 297 -19 -93 -2 -277 -2
-407 0 l-238 2 0 -28 0 -29 323 0 c177 0 354 -2 392 -5 70 -5 70 -5 -45 -13
-63 -5 -240 -7 -393 -5 l-277 3 0 -30 0 -30 392 3 c257 2 395 -1 402 -8 7 -7
-118 -10 -392 -10 l-402 0 0 -25 0 -25 393 -1 c271 -1 377 -4 344 -10 -27 -6
-204 -8 -393 -7 l-344 3 0 -25 0 -26 238 -1 c130 0 311 -2 402 -3 l165 -3
-125 -9 c-69 -4 -250 -5 -402 -2 l-278 6 0 -29 0 -28 298 0 c163 0 362 -2 442
-5 140 -5 142 -6 60 -11 -47 -3 -246 -6 -443 -5 l-357 1 0 -25 0 -25 435 3
c264 2 441 0 451 -6 26 -15 -402 -26 -663 -17 l-223 7 0 -73 0 -72 66 7 c37 4
74 11 83 15 14 8 354 5 476 -3 28 -2 71 -4 96 -5 33 -1 46 -5 46 -16 0 -8 -4
-15 -9 -15 -4 0 -8 5 -8 10 0 6 -7 10 -16 10 -8 0 -13 -4 -9 -9 3 -5 -5 -12
-17 -14 -13 -2 -3 -5 22 -7 41 -2 42 -3 15 -9 -16 -4 -162 -8 -323 -8 -269 -1
-293 0 -288 15 6 15 5 15 -6 1 -15 -18 -56 -15 -100 7 l-28 15 0 -76 0 -75
433 -2 c237 0 438 -1 445 -1 7 1 11 -5 8 -13 -3 -8 0 -14 6 -14 9 0 9 -3 0
-12 -20 -20 -14 -57 14 -85 22 -22 31 -24 67 -19 56 9 65 19 79 86 l12 59 222
1 c123 0 235 -2 249 -6 17 -4 27 -15 31 -33 3 -14 8 -33 11 -41 11 -28 8 -83
-4 -87 -7 -3 -13 -9 -13 -15 0 -5 5 -6 10 -3 6 3 10 -1 10 -9 0 -8 18 -43 40
-77 22 -34 40 -67 40 -74 0 -6 14 -33 31 -60 22 -35 33 -45 39 -35 4 7 6 20 3
28 -13 32 48 43 80 15 19 -17 19 -17 12 7 -3 14 -20 48 -37 75 -28 46 -36 73
-37 133 -1 27 -21 20 -21 -8 0 -15 -18 -30 -36 -30 -3 0 -4 15 -2 33 2 27 8
33 31 35 31 4 37 27 9 34 -11 3 -23 -2 -30 -12 -10 -17 -18 -18 -89 -11 -6 1
-11 9 -10 20 1 16 7 18 39 13 49 -6 65 8 74 64 l6 44 320 0 319 0 -3 53 -3 52
-305 5 c-168 3 -282 7 -255 8 37 2 46 5 35 12 -13 8 -12 10 3 10 9 0 17 -4 17
-8 0 -5 20 -9 45 -10 25 0 45 4 45 9 0 5 14 9 30 9 17 0 30 -5 30 -12 0 -9 3
-9 8 -2 4 6 48 11 106 11 55 1 94 -2 88 -6 -6 -4 26 -7 71 -6 l82 0 0 50 0 50
-322 3 c-213 1 -323 6 -323 13 0 5 6 9 13 8 6 -1 153 -1 325 0 305 1 312 1
312 21 0 20 -7 20 -297 21 -283 0 -350 3 -359 12 -6 6 394 18 531 16 115 -1
120 -1 123 20 l3 21 -325 0 c-211 0 -326 4 -326 10 0 6 45 10 113 11 61 0 207
2 322 5 196 5 210 6 213 24 3 18 -7 19 -245 19 -136 1 -286 4 -333 8 l-85 8
95 6 c52 4 202 7 333 8 230 1 237 2 237 21 0 18 -7 20 -65 20 -38 0 -65 -4
-65 -10 0 -6 -17 -10 -40 -8 -22 1 -40 6 -40 10 0 4 -82 8 -182 9 -188 1 -307
16 -153 19 572 11 540 9 543 30 3 19 -4 20 -302 20 -168 0 -306 4 -306 8 0 12
202 22 427 22 182 0 184 0 181 21 -3 20 -7 21 -177 20 -96 -1 -224 2 -285 6
l-111 8 90 6 c50 4 179 7 287 8 194 1 198 1 195 22 -3 20 -9 21 -285 24 -226
3 -282 1 -282 -10 0 -7 -7 -18 -15 -25 -8 -7 -13 -15 -10 -19 2 -4 -14 -12
-36 -18 -31 -8 -39 -8 -39 3 0 8 5 14 11 14 5 0 7 5 4 10 -4 6 -1 9 6 8 22 -5
42 50 32 86 l-10 31 -7 -30 c-13 -52 -26 -77 -39 -72 -6 2 -11 15 -10 28 2 13
5 56 9 94 3 39 10 75 15 81 14 18 56 23 81 10 16 -8 57 -9 128 -5 58 4 183 7
278 8 l172 1 0 25 0 25 -280 0 c-154 0 -280 4 -280 9 0 13 135 21 357 21 l204
0 -3 26 -3 25 -280 -1 c-205 0 -277 2 -268 11 7 7 104 13 282 16 l272 6 -3 25
-3 25 -272 -2 c-160 -1 -273 2 -273 7 0 16 95 22 329 22 l223 0 -6 23 c-3 12
-6 26 -6 31 0 10 -629 1 -672 -10 -17 -4 -28 -2 -28 4 0 19 76 25 390 31 l315
6 0 29 0 30 -267 -3 c-159 -2 -268 1 -268 7 0 9 259 22 444 22 97 0 98 0 92
23 -3 12 -6 25 -6 30 0 4 -19 7 -42 7 -42 -1 -43 -1 -18 -15 22 -13 7 -14
-152 -15 -97 0 -178 4 -180 9 -1 5 -32 11 -68 12 -65 4 -80 11 -80 39 0 9 3
11 8 5 4 -6 101 -8 272 -5 l265 5 3 39 3 39 -62 -7 c-34 -3 -158 -6 -276 -6
-214 0 -214 0 -208 -21 5 -13 3 -19 -3 -15 -14 8 -21 56 -9 56 6 0 3 8 -6 18
-13 14 -17 42 -19 113 -2 52 -7 97 -13 101 -5 4 -1 8 10 8 11 0 16 4 10 8 -11
8 -18 65 -7 58 12 -7 -5 137 -22 198 -14 46 -22 58 -59 79 -23 14 -59 29 -80
35 -48 14 -97 35 -97 43 0 4 7 10 16 13 10 4 13 2 8 -6 -5 -8 -2 -9 10 -5 9 4
15 3 12 -2 -7 -11 22 -23 35 -15 5 3 6 10 3 16 -4 6 2 8 17 3 17 -4 20 -3 10
3 -11 8 -11 11 0 16 8 3 4 3 -8 1 -12 -3 -24 -1 -28 4 -3 7 0 8 9 5 9 -3 16
-1 16 5 0 6 6 8 14 5 19 -7 34 82 17 99 -6 6 -11 19 -11 29 0 15 -9 18 -64 18
-49 0 -65 -4 -70 -16 -5 -14 -8 -14 -28 0 -25 18 -188 23 -188 7 0 -5 5 -22
12 -38 6 -15 12 -43 13 -60 1 -18 4 -35 7 -38 5 -5 -1 -46 -17 -121 l-6 -29
25 28 c15 16 24 32 21 37 -5 8 6 13 68 25 9 2 17 0 17 -4 0 -16 -26 -31 -52
-31 -35 0 -37 -16 -3 -22 16 -3 30 1 41 13 24 26 30 15 10 -16 -11 -17 -26
-25 -45 -25 -28 0 -28 0 -29 -70 -1 -39 -3 -74 -6 -78 -3 -5 -1 -34 3 -65 4
-31 5 -59 2 -62 -3 -3 -5 -43 -4 -88 l1 -82 -9 75 c-5 41 -12 82 -16 90 -3 8
-8 47 -10 85 -2 39 -7 92 -11 119 -6 44 -11 50 -37 58 -93 28 -118 42 -146 81
-16 22 -29 53 -29 69 0 36 16 36 23 -1 10 -47 53 -89 110 -106 64 -19 67 -19
67 3 0 12 -3 13 -8 4 -8 -12 -18 -9 -102 31 -31 15 -77 104 -62 119 7 7 12 1
17 -21 8 -38 41 -81 63 -81 9 0 30 -7 46 -15 15 -8 32 -12 38 -9 5 3 -12 17
-39 31 -89 47 -99 68 -70 156 l15 47 -594 0 -594 0 0 -291z m1590 261 c0 -6
-12 -9 -27 -8 -25 3 -28 0 -25 -24 2 -19 -2 -28 -11 -28 -22 0 -26 10 -15 41
8 24 15 29 44 29 19 0 34 -5 34 -10z m-943 -42 c-3 -7 -5 -2 -5 12 0 14 2 19
5 13 2 -7 2 -19 0 -25z m993 1 c0 -5 -4 -9 -10 -9 -5 0 -10 7 -10 16 0 8 5 12
10 9 6 -3 10 -10 10 -16z m-290 -29 c0 -5 -4 -10 -10 -10 -5 0 -10 5 -10 10 0
6 5 10 10 10 6 0 10 -4 10 -10z m-693 -122 c-2 -13 -4 -3 -4 22 0 25 2 35 4
23 2 -13 2 -33 0 -45z m-560 -80 c-3 -8 -6 -5 -6 6 -1 11 2 17 5 13 3 -3 4
-12 1 -19z m850 0 c-3 -8 -6 -5 -6 6 -1 11 2 17 5 13 3 -3 4 -12 1 -19z m-113
-44 c3 -8 2 -12 -4 -9 -6 3 -10 10 -10 16 0 14 7 11 14 -7z m79 -14 c3 -11 2
-20 -3 -20 -4 0 -10 9 -13 20 -3 11 -2 20 3 20 4 0 10 -9 13 -20z m247 -60 c0
-5 -5 -10 -11 -10 -5 0 -7 5 -4 10 3 6 8 10 11 10 2 0 4 -4 4 -10z m-163 -22
c-3 -8 -6 -5 -6 6 -1 11 2 17 5 13 3 -3 4 -12 1 -19z m219 -43 c1 -8 -2 -13
-7 -9 -5 3 -9 12 -9 21 0 19 13 9 16 -12z m81 -77 c-3 -7 -5 -2 -5 12 0 14 2
19 5 13 2 -7 2 -19 0 -25z m-129 9 c14 4 14 3 3 -5 -17 -12 -43 -4 -34 11 5 8
8 8 10 0 3 -7 12 -9 21 -6z m179 -219 c-3 -7 -5 -2 -5 12 0 14 2 19 5 13 2 -7
2 -19 0 -25z m-595 -122 c-2 -21 -10 -36 -17 -36 -19 0 -26 27 -9 40 8 7 14
19 14 27 0 8 4 12 8 9 4 -3 6 -21 4 -40z m585 -268 c-2 -13 -4 -5 -4 17 -1 22
1 32 4 23 2 -10 2 -28 0 -40z m958 2 c13 -5 -21 -8 -90 -7 -107 1 -108 1 -35
7 41 4 82 7 90 7 8 1 24 -2 35 -7z m-477 -10 c-2 -6 -41 -12 -87 -15 -48 -2
-80 0 -75 5 19 18 168 28 162 10z m-898 -60 c0 -5 -17 -10 -37 -10 -21 -1 -57
-5 -80 -9 -33 -6 -43 -5 -43 5 0 13 32 20 113 22 26 1 47 -2 47 -8z m0 -29 c0
-6 -21 -12 -47 -16 -27 -3 -60 -8 -75 -10 -15 -2 -30 0 -33 5 -6 10 18 17 75
23 69 7 80 7 80 -2z m850 -27 c0 -15 -4 -23 -11 -19 -6 4 -8 14 -5 22 3 8 1
11 -4 8 -6 -3 -10 -1 -10 4 0 6 7 11 15 11 9 0 15 -10 15 -26z m-53 -26 c-3
-8 -6 -5 -6 6 -1 11 2 17 5 13 3 -3 4 -12 1 -19z m-836 -5 c0 -10 2 -26 4 -36
2 -9 -1 -15 -6 -11 -14 8 -11 -29 5 -51 7 -11 12 -28 10 -37 -1 -10 2 -18 7
-18 5 0 9 -8 9 -19 0 -12 -9 -20 -24 -23 -28 -6 -41 13 -23 31 8 8 8 11 0 11
-10 0 -24 40 -25 67 0 5 -6 23 -14 42 -18 43 -18 49 4 54 36 10 52 7 53 -10z
m891 -43 c3 -19 -1 -35 -10 -43 -13 -10 -14 -8 -10 15 3 15 1 25 -3 22 -10 -6
-12 29 -3 39 12 11 22 -2 26 -33z m-32 -30 c0 -5 -4 -10 -10 -10 -5 0 -10 5
-10 10 0 6 5 10 10 10 6 0 10 -4 10 -10z m-82 -87 c2 -15 -6 -25 -30 -36 -38
-18 -188 -47 -241 -47 -67 0 -38 17 51 29 123 17 177 30 198 47 16 12 13 12
-24 -1 -60 -20 -255 -46 -266 -35 -10 10 6 14 127 30 49 6 105 17 125 24 46
17 56 15 60 -11z m-573 -33 c50 -4 124 -9 165 -9 118 -2 104 -19 -17 -20 -132
-1 -229 12 -254 35 -16 15 -19 15 -14 2 12 -31 59 -41 212 -46 123 -4 153 -8
158 -20 3 -8 3 -17 0 -20 -3 -3 -5 -1 -5 4 0 5 -55 10 -123 12 -158 4 -223 16
-243 47 -9 14 -13 33 -9 45 l6 20 17 -20 c14 -17 35 -23 107 -30z m-120 -92
c7 -35 16 -78 20 -95 6 -26 4 -33 -7 -33 -16 0 -38 40 -38 70 0 34 -19 31 -25
-4 -8 -38 6 -72 39 -98 l21 -18 -21 0 c-12 0 -27 7 -34 15 -6 8 -17 13 -23 12
-7 -1 -26 27 -43 63 -26 53 -31 74 -27 111 5 46 5 46 51 56 61 12 71 2 87 -79z
m775 -162 c0 -3 -4 -8 -10 -11 -5 -3 -10 -1 -10 4 0 6 5 11 10 11 6 0 10 -2
10 -4z m-813 -128 c-3 -7 -5 -2 -5 12 0 14 2 19 5 13 2 -7 2 -19 0 -25z m33
-84 c0 -25 -30 -84 -44 -84 -5 0 -3 6 3 13 6 8 8 17 4 20 -3 4 -2 7 4 7 16 0
22 37 12 73 -8 29 -7 30 6 13 8 -11 15 -30 15 -42z m-70 -134 c-21 -13 -883
-13 -875 0 4 6 164 10 448 10 289 0 437 -4 427 -10z"/>
<path d="M1628 2923 c7 -3 16 -2 19 1 4 3 -2 6 -13 5 -11 0 -14 -3 -6 -6z"/>
<path d="M2327 2514 c-3 -4 -125 -6 -270 -5 -246 2 -265 0 -269 -16 -2 -10 -2
-29 2 -43 7 -28 -27 -26 397 -22 l173 2 -3 42 c-2 39 -15 57 -30 42z"/>
<path d="M0 2455 l0 -45 369 0 370 0 -1 40 c0 28 -5 41 -17 44 -9 2 -175 5
-368 5 l-353 1 0 -45z"/>
<path d="M2330 2360 c0 -5 5 -10 10 -10 6 0 10 5 10 10 0 6 -4 10 -10 10 -5 0
-10 -4 -10 -10z"/>
<path d="M1797 2347 c-3 -7 2 -23 12 -34 16 -20 21 -21 284 -16 239 5 267 8
267 22 0 15 -25 16 -262 15 -145 -2 -252 0 -238 3 49 10 45 23 -7 23 -33 0
-53 -5 -56 -13z"/>
<path d="M0 2126 l0 -31 365 0 364 0 -2 30 -3 30 -362 1 -362 1 0 -31z"/>
<path d="M0 2044 l0 -31 370 1 370 1 0 33 0 33 -370 -3 -370 -2 0 -32z"/>
<path d="M1804 1654 c3 -9 6 -22 6 -29 0 -11 51 -12 273 -8 l272 4 3 25 3 24
-281 0 c-253 0 -282 -2 -276 -16z"/>
<path d="M1810 1563 c0 -12 0 -26 0 -29 0 -7 42 -7 360 2 l185 5 3 24 3 24
-275 -1 -276 -1 0 -24z"/>
<path d="M878 642 c-15 -3 -18 -14 -18 -58 0 -53 -16 -101 -46 -134 -16 -19
-46 -101 -39 -108 3 -3 13 2 24 12 26 24 71 6 71 -28 0 -14 4 -27 9 -30 10 -7
141 252 144 282 1 13 7 18 17 15 12 -4 11 -1 -2 10 -10 8 -18 20 -18 28 -1 10
-4 9 -14 -3 -7 -10 -19 -18 -27 -18 -12 0 -12 2 0 9 9 6 0 10 -28 13 -40 3
-44 -6 -6 -15 15 -3 13 -5 -8 -6 -18 -1 -30 5 -35 17 -4 10 -15 16 -24 14z
m57 -52 c8 -14 -7 -70 -19 -70 -28 1 -39 18 -32 53 5 29 10 34 26 30 11 -3 22
-9 25 -13z"/>
<path d="M310 140 c8 -5 23 -10 32 -10 9 0 22 -8 28 -17 11 -17 11 -17 6 0 -3
10 0 17 7 17 8 0 6 4 -3 10 -8 5 -31 10 -50 10 -26 0 -31 -3 -20 -10z"/>
<path d="M670 145 c0 -2 9 -9 20 -15 16 -9 18 -8 14 5 -5 13 -34 22 -34 10z"/>
<path d="M13 133 c9 -2 23 -2 30 0 6 3 -1 5 -18 5 -17 0 -22 -2 -12 -5z"/>
<path d="M450 124 c0 -8 5 -12 10 -9 6 3 10 10 10 16 0 5 -4 9 -10 9 -5 0 -10
-7 -10 -16z"/>
<path d="M548 128 c5 -5 16 -8 23 -6 8 3 3 7 -10 11 -17 4 -21 3 -13 -5z"/>
<path d="M630 130 c0 -5 4 -10 9 -10 6 0 13 5 16 10 3 6 -1 10 -9 10 -9 0 -16
-4 -16 -10z"/>
<path d="M725 130 c-3 -5 1 -10 9 -10 9 0 16 -4 16 -9 0 -6 12 -6 30 0 17 6
30 15 30 20 0 6 -9 5 -20 -1 -14 -7 -26 -8 -39 0 -13 7 -22 7 -26 0z"/>
<path d="M595 120 c3 -5 11 -10 16 -10 6 0 7 5 4 10 -3 6 -11 10 -16 10 -6 0
-7 -4 -4 -10z"/>
</g>
</svg>
